<?xml version="1.0" encoding="UTF-8" standalone="no" ?>
<!DOCTYPE svg PUBLIC "-//W3C//DTD SVG 1.1//EN" "http://www.w3.org/Graphics/SVG/1.1/DTD/svg11.dtd">
<svg xmlns="http://www.w3.org/2000/svg" xmlns:xlink="http://www.w3.org/1999/xlink" version="1.1" width="1080" height="1080" viewBox="0 0 1080 1080" xml:space="preserve">
<desc>Created with Fabric.js 5.2.4</desc>
<defs>
</defs>
<g transform="matrix(1 0 0 1 540 540)" id="126482a2-d5d6-4683-a96b-3daa0ca255a7"  >
<rect style="stroke: none; stroke-width: 1; stroke-dasharray: none; stroke-linecap: butt; stroke-dashoffset: 0; stroke-linejoin: miter; stroke-miterlimit: 4; fill: rgb(255,255,255); fill-rule: nonzero; opacity: 1; visibility: hidden;" vector-effect="non-scaling-stroke"  x="-540" y="-540" rx="0" ry="0" width="1080" height="1080" />
</g>
<g transform="matrix(1 0 0 1 540 540)" id="c421eba8-b38a-4ee8-9231-4e7b934bec73"  >
</g>
<g transform="matrix(43.94 0 0 43.94 540 540)" id="a4b24a50-9c95-4edd-b072-6ea40f70106d"  >
<path style="stroke: rgb(0,0,0); stroke-width: 0; stroke-dasharray: none; stroke-linecap: butt; stroke-dashoffset: 0; stroke-linejoin: miter; stroke-miterlimit: 4; fill: rgb(27,77,179); fill-rule: nonzero; opacity: 1;" vector-effect="non-scaling-stroke"  transform=" translate(-12, -12)" d="M 8.358 20.162 C 7.172000000000001 19.092 6.8260000000000005 16.846 7.32 15.218 C 8.176 16.244 9.363 16.57 10.592 16.753 C 12.489 17.036 14.352 16.93 16.114 16.075 C 16.316000000000003 15.976999999999999 16.502000000000002 15.846 16.722 15.715 C 16.888 16.188 16.931 16.665 16.873 17.152 C 16.733 18.337 16.135 19.252000000000002 15.185 19.946 C 14.805 20.223000000000003 14.403 20.471 14.01 20.733 C 12.805 21.537 12.479 22.48 12.932 23.852 L 12.976 24 C 12.399394592404438 23.752569263177 11.909565907138841 23.338982569434624 11.569 22.812 C 11.214678531474128 22.272935697608993 11.025596880661508 21.642084233960272 11.025 20.997 C 11.021 20.677 11.021 20.355 10.977 20.039 C 10.871 19.270000000000003 10.505 18.926000000000002 9.816 18.906000000000002 C 9.109 18.886000000000003 8.549000000000001 19.317000000000004 8.401 19.996000000000002 C 8.389 20.049000000000003 8.373 20.1 8.356 20.161 L 8.358 20.161 z M 2.3970000000000002 15.716999999999999 C 2.3970000000000002 15.716999999999999 5.6370000000000005 14.142 8.887 14.142 L 11.338000000000001 6.576999999999999 C 11.430000000000001 6.210999999999999 11.698 5.962999999999999 12.000000000000002 5.962999999999999 C 12.302000000000001 5.962999999999999 12.570000000000002 6.210999999999999 12.662000000000003 6.576999999999999 L 15.112000000000002 14.142 C 18.962000000000003 14.142 21.603 15.716999999999999 21.603 15.716999999999999 L 16.088 0.727 C 15.93 0.285 15.663 0 15.303 0 L 8.697 0 C 8.337 0 8.081999999999999 0.285 7.912999999999999 0.727 L 2.3969999999999994 15.717 z" stroke-linecap="round" />
</g>
<g transform="matrix(NaN NaN NaN NaN 0 0)"  >
<g style=""   >
</g>
</g>
</svg>